<svg aria-hidden="true" style="position: absolute; width: 0; height: 0; overflow: hidden;" version="1.1" xmlns="http://www.w3.org/2000/svg" xmlns:xlink="http://www.w3.org/1999/xlink">
<defs>
<symbol id="icon-menu" viewBox="0 0 32 32">
<path d="M4 18h24c0.736 0 1.333-0.597 1.333-1.333s-0.597-1.333-1.333-1.333h-24c-0.736 0-1.333 0.597-1.333 1.333s0.597 1.333 1.333 1.333zM4 10h24c0.736 0 1.333-0.597 1.333-1.333s-0.597-1.333-1.333-1.333h-24c-0.736 0-1.333 0.597-1.333 1.333s0.597 1.333 1.333 1.333zM4 26h24c0.736 0 1.333-0.597 1.333-1.333s-0.597-1.333-1.333-1.333h-24c-0.736 0-1.333 0.597-1.333 1.333s0.597 1.333 1.333 1.333z"></path>
</symbol>
<symbol id="icon-x" viewBox="0 0 32 32">
<path d="M7.057 9.609l7.057 7.057-7.057 7.057c-0.521 0.521-0.521 1.365 0 1.885s1.365 0.521 1.885 0l7.057-7.057 7.057 7.057c0.521 0.521 1.365 0.521 1.885 0s0.521-1.365 0-1.885l-7.057-7.057 7.057-7.057c0.521-0.521 0.521-1.365 0-1.885s-1.365-0.521-1.885 0l-7.057 7.057-7.057-7.057c-0.521-0.521-1.365-0.521-1.885 0s-0.521 1.365 0 1.885z"></path>
</symbol>
<symbol id="icon-phone" viewBox="0 0 32 32">
<path d="M30.667 23.227c0.021-0.952-0.315-1.872-0.897-2.591-0.613-0.755-1.505-1.289-2.567-1.44-1.067-0.131-2.26-0.419-3.448-0.861-0.577-0.212-1.191-0.291-1.792-0.232-0.884 0.085-1.743 0.465-2.425 1.14l-0.96 0.96c-2.36-1.489-4.48-3.556-6.111-6.119l0.968-0.968c0.429-0.44 0.751-0.968 0.943-1.541 0.283-0.843 0.285-1.781-0.052-2.681-0.385-1.004-0.691-2.192-0.859-3.46-0.139-0.952-0.608-1.793-1.284-2.405-0.719-0.648-1.675-1.039-2.703-1.028h-3.995c-0.117 0-0.243 0.005-0.364 0.016-1.099 0.1-2.056 0.637-2.711 1.421s-1.011 1.823-0.911 2.932c0.4 4.101 1.82 8.324 4.288 12.136 2.003 3.217 4.864 6.164 8.397 8.408 3.424 2.263 7.579 3.816 12.115 4.308 0.123 0.012 0.255 0.017 0.384 0.017 1.104-0.004 2.104-0.457 2.824-1.183s1.164-1.729 1.16-2.828zM28 23.227v4c0.001 0.373-0.145 0.707-0.387 0.949s-0.572 0.393-0.941 0.395c-4.199-0.448-7.948-1.855-11.017-3.883-3.237-2.057-5.812-4.716-7.603-7.592-2.263-3.493-3.54-7.308-3.899-10.984-0.032-0.357 0.085-0.701 0.305-0.965s0.537-0.44 0.904-0.473l4.117-0.007c0.361-0.004 0.676 0.125 0.916 0.341 0.227 0.205 0.384 0.488 0.431 0.811 0.189 1.429 0.544 2.823 1.009 4.033 0.108 0.288 0.107 0.596 0.013 0.877-0.065 0.193-0.175 0.375-0.323 0.527l-1.683 1.681c-0.432 0.432-0.505 1.085-0.216 1.601 2.112 3.713 5.119 6.609 8.508 8.504 0.529 0.296 1.176 0.192 1.593-0.221l1.693-1.693c0.221-0.219 0.503-0.343 0.797-0.372 0.203-0.020 0.413 0.007 0.612 0.080 1.363 0.508 2.76 0.848 4.045 1.005 0.321 0.045 0.616 0.221 0.82 0.473 0.196 0.241 0.308 0.549 0.301 0.909z"></path>
</symbol>
<symbol id="icon-facebook" viewBox="0 0 32 32">
<path d="M14.343 4.343c1.5-1.5 3.535-2.343 5.657-2.343h4c0.736 0 1.333 0.597 1.333 1.333v5.333c0 0.736-0.597 1.333-1.333 1.333h-4v2.667h4c0.411 0 0.798 0.189 1.051 0.513s0.342 0.746 0.243 1.144l-1.333 5.333c-0.148 0.594-0.682 1.010-1.293 1.010h-2.667v9.333c0 0.736-0.597 1.333-1.333 1.333h-5.333c-0.736 0-1.333-0.597-1.333-1.333v-9.333h-2.667c-0.736 0-1.333-0.597-1.333-1.333v-5.333c0-0.736 0.597-1.333 1.333-1.333h2.667v-2.667c0-2.122 0.843-4.157 2.343-5.657zM20 4.667c-1.415 0-2.771 0.562-3.771 1.562s-1.562 2.357-1.562 3.771v4c0 0.736-0.597 1.333-1.333 1.333h-2.667v2.667h2.667c0.736 0 1.333 0.597 1.333 1.333v9.333h2.667v-9.333c0-0.736 0.597-1.333 1.333-1.333h2.959l0.667-2.667h-3.626c-0.736 0-1.333-0.597-1.333-1.333v-4c0-0.707 0.281-1.386 0.781-1.886s1.178-0.781 1.886-0.781h2.667v-2.667h-2.667z"></path>
</symbol>
<symbol id="icon-mail" viewBox="0 0 32 32">
<path d="M5.333 7.333c-0.73 0-1.333 0.603-1.333 1.333v16c0 0.73 0.603 1.333 1.333 1.333h21.333c0.73 0 1.333-0.603 1.333-1.333v-16c0-0.73-0.603-1.333-1.333-1.333h-21.333zM1.333 8.667c0-2.203 1.797-4 4-4h21.333c2.203 0 4 1.797 4 4v16c0 2.203-1.797 4-4 4h-21.333c-2.203 0-4-1.797-4-4v-16zM1.574 7.902c0.422-0.603 1.254-0.75 1.857-0.328l12.569 8.798 12.569-8.798c0.603-0.422 1.435-0.276 1.857 0.328s0.276 1.435-0.328 1.857l-13.333 9.333c-0.459 0.321-1.070 0.321-1.529 0l-13.333-9.333c-0.603-0.422-0.75-1.254-0.328-1.857z"></path>
</symbol>
<symbol id="icon-map-pin" viewBox="0 0 32 32">
<path d="M16 3.333c-2.829 0-5.542 1.124-7.542 3.124s-3.124 4.713-3.124 7.542c0 4.131 2.688 8.139 5.635 11.25 1.446 1.527 2.897 2.776 3.988 3.645 0.406 0.323 0.76 0.593 1.044 0.802 0.284-0.21 0.639-0.479 1.044-0.802 1.091-0.868 2.541-2.118 3.988-3.645 2.947-3.111 5.635-7.119 5.635-11.25 0-2.829-1.124-5.542-3.124-7.542s-4.714-3.124-7.543-3.124zM16 31.333c-0.74 1.109-0.74 1.109-0.74 1.109l-0.004-0.003-0.009-0.006-0.031-0.021c-0.026-0.018-0.063-0.043-0.11-0.076-0.095-0.066-0.231-0.161-0.402-0.285-0.343-0.248-0.829-0.609-1.409-1.072-1.159-0.923-2.709-2.257-4.262-3.897-3.053-3.223-6.365-7.881-6.365-13.084 0-3.536 1.405-6.928 3.905-9.428s5.892-3.905 9.428-3.905c3.536 0 6.928 1.405 9.428 3.905s3.905 5.892 3.905 9.428c0 5.203-3.312 9.861-6.365 13.084-1.554 1.64-3.103 2.974-4.262 3.897-0.581 0.462-1.066 0.824-1.409 1.072-0.172 0.124-0.308 0.219-0.402 0.285-0.047 0.033-0.084 0.058-0.11 0.076l-0.031 0.021-0.009 0.006-0.003 0.002c-0 0-0.002 0.001-0.741-1.108zM16 31.333l0.74 1.109c-0.448 0.299-1.032 0.298-1.48-0.001l0.74-1.109zM22.667 14c0-3.682-2.985-6.667-6.667-6.667s-6.667 2.985-6.667 6.667c0 3.682 2.985 6.667 6.667 6.667s6.667-2.985 6.667-6.667zM20 14c0 2.209-1.791 4-4 4s-4-1.791-4-4c0-2.209 1.791-4 4-4s4 1.791 4 4z"></path>
</symbol>
<symbol id="icon-trim" viewBox="0 0 32 32">
<path d="M16 18.662c0.607 0 1.154-0.365 1.386-0.926s0.104-1.205-0.325-1.635c-0.594-0.566-1.527-0.566-2.121 0-0.428 0.429-0.557 1.074-0.325 1.634s0.779 0.926 1.385 0.926zM15.646 16.809c0.195-0.195 0.512-0.195 0.707 0s0.195 0.512 0 0.707c-0.198 0.189-0.509 0.189-0.707 0-0.195-0.195-0.195-0.512 0-0.707zM22 11.662c0.133 0 0.26-0.053 0.354-0.146l4.5-4.5c0.189-0.196 0.187-0.508-0.006-0.701s-0.505-0.196-0.701-0.006l-4.5 4.5c-0.143 0.143-0.186 0.358-0.108 0.545s0.26 0.309 0.462 0.309zM19.5 14.162c0.133 0 0.26-0.053 0.354-0.147l1-1c0.189-0.196 0.187-0.508-0.006-0.701s-0.505-0.196-0.701-0.006l-1 1c-0.143 0.143-0.186 0.358-0.108 0.545s0.26 0.309 0.462 0.309zM6.5 25.662c-1.104 0-2 0.895-2 2s0.896 2 2 2 2-0.895 2-2c0-1.105-0.896-2-2-2v0zM6.5 28.662c-0.552 0-1-0.447-1-1s0.448-1 1-1 1 0.448 1 1c0 0.553-0.448 1-1 1zM25.519 29.662c1.104 0 2-0.895 2-2s-0.896-2-2-2c-1.105 0-2 0.895-2 2s0.895 2 2 2v0zM25.519 26.662c0.552 0 1 0.448 1 1s-0.448 1-1 1-1-0.447-1-1c0-0.552 0.448-1 1-1zM30.5 19.162c-1.104 0-2-0.895-2-2 0-0.276-0.224-0.5-0.5-0.5s-0.5 0.224-0.5 0.5c0 1.105-0.896 2-2 2-0.276 0-0.5 0.224-0.5 0.5s0.224 0.5 0.5 0.5c1.104 0 2 0.895 2 2 0 0.276 0.224 0.5 0.5 0.5s0.5-0.224 0.5-0.5c0-1.105 0.896-2 2-2 0.276 0 0.5-0.224 0.5-0.5s-0.224-0.5-0.5-0.5zM28 20.508c-0.223-0.335-0.51-0.623-0.845-0.845 0.335-0.222 0.622-0.51 0.845-0.845 0.223 0.335 0.51 0.622 0.845 0.845-0.335 0.223-0.622 0.51-0.845 0.845zM1.5 14.162c1.104 0 2 0.895 2 2 0 0.276 0.224 0.5 0.5 0.5s0.5-0.224 0.5-0.5c0-1.105 0.896-2 2-2 0.276 0 0.5-0.224 0.5-0.5s-0.224-0.5-0.5-0.5c-1.104 0-2-0.895-2-2 0-0.276-0.224-0.5-0.5-0.5s-0.5 0.224-0.5 0.5c0 1.105-0.896 2-2 2-0.276 0-0.5 0.224-0.5 0.5s0.224 0.5 0.5 0.5v0zM4 12.817c0.223 0.335 0.51 0.622 0.845 0.845-0.335 0.223-0.622 0.51-0.845 0.845-0.223-0.335-0.51-0.623-0.845-0.845 0.335-0.222 0.622-0.51 0.845-0.845v0zM13.1 18.856l-5.1 5.099c-0.476-0.195-0.986-0.294-1.5-0.293-2.209 0-4 1.791-4 4s1.791 4 4 4 4-1.791 4-4c-0-0.239-0.023-0.478-0.067-0.713l5.576-5.45 5.576 5.45c-0.044 0.235-0.066 0.474-0.067 0.713 0 2.209 1.791 4 4 4s4-1.791 4-4c0-2.209-1.791-4-4-4-0.514-0.001-1.024 0.099-1.5 0.293l-5.094-5.093 9.466-10.888c2.203-2.754 0.047-6.057 0.026-6.090-0.081-0.122-0.212-0.202-0.357-0.219s-0.292 0.030-0.4 0.13l-11.645 10.817-11.646-10.817c-0.108-0.099-0.254-0.147-0.4-0.13s-0.276 0.097-0.357 0.219c-0.022 0.033-2.177 3.336 0.039 6.105l9.451 10.866zM9.535 26.429c-0.128 0.125-0.179 0.309-0.135 0.482 0.321 1.242-0.183 2.551-1.255 3.257s-2.473 0.651-3.488-0.135c-1.014-0.786-1.416-2.13-1-3.344s1.558-2.029 2.841-2.027c0.479-0 0.952 0.115 1.377 0.337 0.194 0.1 0.429 0.063 0.584-0.090l5.294-5.294c0.296 0.279 0.638 0.505 1.011 0.667l0.528 0.516-5.759 5.63zM24.142 24.999c0.425-0.222 0.897-0.338 1.376-0.337 1.293-0.008 2.448 0.809 2.871 2.031s0.020 2.578-1.002 3.371c-1.022 0.793-2.435 0.847-3.514 0.133s-1.584-2.035-1.254-3.286c0.045-0.173-0.006-0.357-0.134-0.482l-6.064-5.928c0.689-0.106 1.328-0.42 1.833-0.9l5.305 5.305c0.154 0.155 0.39 0.192 0.584 0.092v0zM27.869 2.966c0.421 0.895 1.030 2.772-0.246 4.368l-9.977 11.474c-0.906 0.913-2.38 0.919-3.293 0.013s-0.919-2.38-0.013-3.293l13.528-12.563zM4.156 2.962l11.123 10.331-1.633 1.516c-0.551 0.534-0.904 1.239-1 2l-8.229-9.459c-1.299-1.623-0.688-3.493-0.262-4.387z"></path>
</symbol>
<symbol id="icon-whatsapp" viewBox="0 0 32 32">
<path d="M22.133 19.333c-0.267-0.133-2-0.933-2.267-1.067s-0.533-0.133-0.8 0.133c-0.267 0.267-0.8 1.067-1.067 1.333-0.133 0.267-0.4 0.267-0.667 0.133-0.933-0.4-1.867-0.933-2.667-1.6-0.667-0.667-1.333-1.467-1.867-2.267-0.133-0.267 0-0.533 0.133-0.667s0.267-0.4 0.533-0.533c0.133-0.133 0.267-0.4 0.267-0.533 0.133-0.133 0.133-0.4 0-0.533s-0.8-1.733-1.067-2.4c-0.133-0.933-0.4-0.933-0.667-0.933-0.133 0-0.4 0-0.667 0s-0.667 0.267-0.8 0.4c-0.8 0.8-1.2 1.733-1.2 2.8 0.133 1.2 0.533 2.4 1.333 3.467 1.467 2.133 3.333 3.867 5.6 4.933 0.667 0.267 1.2 0.533 1.867 0.667 0.667 0.267 1.333 0.267 2.133 0.133 0.933-0.133 1.733-0.8 2.267-1.6 0.267-0.533 0.267-1.067 0.133-1.6 0 0-0.267-0.133-0.533-0.267zM25.467 7.2c-5.2-5.2-13.6-5.2-18.8 0-4.267 4.267-5.067 10.8-2.133 16l-1.867 6.8 7.067-1.867c2 1.067 4.133 1.6 6.267 1.6 7.333 0 13.2-5.867 13.2-13.2 0.133-3.467-1.333-6.8-3.733-9.333zM21.867 25.867c-1.733 1.067-3.733 1.733-5.867 1.733-2 0-3.867-0.533-5.6-1.467l-0.4-0.267-4.133 1.067 1.067-4-0.267-0.4c-3.2-5.333-1.6-12 3.6-15.333s11.867-1.6 15.067 3.467c3.2 5.2 1.733 12-3.467 15.2z"></path>
</symbol>
<symbol id="icon-woman-hair" viewBox="0 0 32 32">
<path d="M7.5 10.167c1.104 0 2-0.895 2-2s-0.895-2-2-2c-1.105 0-2 0.895-2 2s0.895 2 2 2zM7.5 7.167c0.552 0 1 0.448 1 1s-0.448 1-1 1c-0.552 0-1-0.448-1-1s0.448-1 1-1zM7 15.167c0-1.104-0.896-2-2-2s-2 0.895-2 2 0.895 2 2 2c1.104 0 2-0.895 2-2zM4 15.167c0-0.552 0.448-1 1-1s1 0.448 1 1c0 0.552-0.448 1-1 1s-1-0.448-1-1zM6 20.167c-1.105 0-2 0.896-2 2s0.895 2 2 2c1.104 0 2-0.895 2-2s-0.896-2-2-2zM6 23.167c-0.552 0-1-0.448-1-1s0.448-1 1-1c0.552 0 1 0.448 1 1s-0.448 1-1 1zM24.5 10.167c1.104 0 2-0.895 2-2s-0.895-2-2-2c-1.105 0-2 0.895-2 2s0.895 2 2 2zM24.5 7.167c0.552 0 1 0.448 1 1s-0.448 1-1 1c-0.552 0-1-0.448-1-1s0.448-1 1-1zM25 15.167c0 1.104 0.895 2 2 2s2-0.895 2-2-0.895-2-2-2c-1.105 0-2 0.895-2 2v0zM28 15.167c0 0.552-0.448 1-1 1s-1-0.448-1-1c0-0.552 0.448-1 1-1s1 0.448 1 1zM28.341 18.93c1.811-0.643 2.907-2.483 2.611-4.381s-1.902-3.316-3.823-3.376c1.637-1.431 1.829-3.907 0.434-5.573s-3.867-1.912-5.563-0.552v-2.882c0-0.276-0.224-0.5-0.5-0.5h-11c-0.276 0-0.5 0.224-0.5 0.5v2.889c-1.693-1.364-4.167-1.122-5.564 0.544s-1.204 4.144 0.434 5.574c-1.92 0.060-3.526 1.478-3.822 3.376s0.8 3.738 2.611 4.381c-1.46 1.055-2.034 2.958-1.401 4.644s2.317 2.741 4.111 2.574c1.794-0.167 3.255-1.513 3.566-3.288 0.567 0.79 1.265 1.478 2.065 2.032v2.774h-4.5c-1.38 0.002-2.499 1.12-2.5 2.5v1c0 0.276 0.224 0.5 0.5 0.5h21c0.276 0 0.5-0.224 0.5-0.5v-1c-0.002-1.38-1.12-2.498-2.5-2.5h-4.5v-2.774c0.799-0.554 1.497-1.242 2.064-2.032 0.308 1.779 1.77 3.131 3.568 3.299s3.485-0.888 4.118-2.579c0.634-1.691 0.056-3.596-1.41-4.65zM30 15.167c0 1.657-1.343 3-3 3s-3-1.343-3-3c0-1.657 1.343-3 3-3 1.656 0.002 2.998 1.344 3 3zM23.471 13.288c-0.16-0.504-0.358-0.995-0.593-1.468 0.471 0.209 0.978 0.325 1.492 0.34-0.365 0.319-0.67 0.701-0.899 1.128zM24.5 5.167c1.593-0.002 2.91 1.242 2.999 2.833s-1.082 2.974-2.666 3.149c-1.584 0.175-3.028-0.919-3.289-2.491 0.257-0.020 0.454-0.234 0.456-0.491v-1.65c0.551-0.845 1.492-1.353 2.5-1.35zM21 7.667h-2.5v-5h2.5v5zM17.5 2.667v5h-3v-5h3zM8.529 13.288c-0.229-0.427-0.534-0.809-0.9-1.128 0.515-0.016 1.022-0.131 1.492-0.34-0.234 0.474-0.432 0.964-0.593 1.468zM11 2.667h2.5v5h-2.5v-5zM4.5 8.167c-0.002-1.325 0.866-2.494 2.135-2.875s2.637 0.117 3.365 1.225v1.65c0.001 0.257 0.199 0.471 0.456 0.491-0.265 1.531-1.654 2.606-3.202 2.478s-2.743-1.416-2.753-2.969zM2 15.167c0-1.657 1.343-3 3-3s3 1.343 3 3c0 1.657-1.343 3-3 3-1.656-0.002-2.999-1.344-3-3zM6 25.167c-1.657 0-3-1.343-3-3s1.343-3 3-3c1.657 0 3 1.343 3 3-0.002 1.656-1.344 2.998-3 3zM7.341 18.404c0.263-0.191 0.503-0.412 0.714-0.66 0.036 0.371 0.089 0.736 0.16 1.096-0.272-0.181-0.566-0.327-0.874-0.436zM19.232 24.203c-0.145 0.092-0.232 0.251-0.232 0.422v3.541c0 0.276 0.224 0.5 0.5 0.5h5c0.828 0 1.5 0.672 1.5 1.5v0.5h-20v-0.5c0-0.828 0.671-1.5 1.5-1.5h5c0.276 0 0.5-0.224 0.5-0.5v-3.543c0-0.171-0.088-0.331-0.232-0.422-2.324-1.475-3.768-4.362-3.768-7.534-0.050-2.563 0.97-5.031 2.814-6.811-0.17 1.097-0.275 2.203-0.314 3.311 0 0.276 0.224 0.5 0.5 0.5s0.5-0.224 0.5-0.5c0.068-1.389 0.218-2.773 0.45-4.144 0.223-0.133 0.453-0.252 0.69-0.356h0.276c-0.236 1.49-0.375 2.993-0.416 4.5 0 0.276 0.224 0.5 0.5 0.5s0.5-0.224 0.5-0.5c0.046-1.507 0.189-3.011 0.428-4.5h0.572v4.5c0 0.276 0.224 0.5 0.5 0.5s0.5-0.224 0.5-0.5v-4.5h0.572c0.239 1.489 0.382 2.993 0.428 4.5 0 0.276 0.224 0.5 0.5 0.5s0.5-0.224 0.5-0.5c-0.042-1.507-0.18-3.010-0.416-4.5h0.275c0.237 0.104 0.469 0.223 0.692 0.356 0.232 1.371 0.382 2.755 0.449 4.144 0 0.276 0.224 0.5 0.5 0.5s0.5-0.224 0.5-0.5c-0.039-1.109-0.144-2.215-0.314-3.311 1.845 1.78 2.864 4.249 2.814 6.811 0 3.173-1.444 6.059-3.768 7.534v0.002zM23.945 17.743c0.211 0.248 0.45 0.469 0.714 0.66-0.308 0.109-0.602 0.255-0.874 0.436 0.071-0.359 0.125-0.724 0.16-1.096zM26 25.167c-1.657 0-3-1.343-3-3s1.343-3 3-3c1.657 0 3 1.343 3 3-0.002 1.656-1.344 2.998-3 3zM26 20.167c-1.105 0-2 0.896-2 2s0.895 2 2 2c1.104 0 2-0.895 2-2s-0.895-2-2-2v0zM26 23.167c-0.552 0-1-0.448-1-1s0.448-1 1-1c0.552 0 1 0.448 1 1s-0.448 1-1 1v0zM14.854 15.813c-0.195-0.195-0.512-0.195-0.707 0-0.36 0.39-0.866 0.613-1.397 0.613s-1.038-0.222-1.397-0.613c-0.196-0.189-0.508-0.186-0.701 0.008s-0.194 0.505-0.004 0.701c0.577 0.572 1.35 0.904 2.163 0.928 0.78-0.016 1.519-0.352 2.044-0.928 0.094-0.094 0.147-0.221 0.147-0.354s-0.053-0.261-0.147-0.354v0zM21.354 15.813c-0.195-0.195-0.512-0.195-0.707 0-0.36 0.39-0.866 0.613-1.397 0.613s-1.038-0.222-1.397-0.613c-0.196-0.189-0.508-0.186-0.701 0.008s-0.194 0.505-0.004 0.701c0.577 0.572 1.35 0.904 2.163 0.928 0.78-0.016 1.519-0.352 2.044-0.928 0.094-0.094 0.147-0.221 0.147-0.354s-0.053-0.261-0.147-0.354v0zM17.647 20.313c-1.588 1.587-3.122 0.168-3.294 0-0.196-0.189-0.509-0.186-0.701 0.007s-0.195 0.505-0.005 0.701c0.646 0.641 1.511 1.012 2.42 1.040 0.872-0.019 1.699-0.395 2.287-1.040 0.189-0.196 0.187-0.508-0.006-0.701s-0.505-0.196-0.701-0.006v-0.001z"></path>
</symbol>
<symbol id="icon-youtube" viewBox="0 0 32 32">
<path d="M16 4.667c0 0 0 0 0 1.333v1.333l-0.101 0c-0.067 0-0.165 0-0.292 0.001-0.253 0.001-0.618 0.004-1.063 0.008-0.89 0.010-2.1 0.029-3.379 0.067-1.281 0.038-2.621 0.095-3.777 0.179-1.184 0.086-2.064 0.195-2.502 0.31-0.398 0.114-0.76 0.331-1.048 0.629-0.282 0.29-0.484 0.647-0.589 1.037-0.399 2.232-0.595 4.495-0.583 6.762l0 0.015c-0.014 2.276 0.18 4.549 0.579 6.79 0.115 0.37 0.32 0.707 0.596 0.98 0.289 0.286 0.647 0.493 1.039 0.601 0.436 0.116 1.319 0.225 2.508 0.312 1.155 0.084 2.496 0.141 3.777 0.179 1.279 0.038 2.489 0.057 3.379 0.067 0.445 0.005 0.81 0.007 1.063 0.008 0.127 0.001 0.225 0.001 0.292 0.001h0.201c0.067-0 0.165-0 0.292-0.001 0.253-0.001 0.618-0.004 1.063-0.008 0.89-0.010 2.1-0.029 3.379-0.067 1.281-0.038 2.621-0.095 3.777-0.179 1.184-0.086 2.064-0.195 2.502-0.31 0.398-0.114 0.76-0.331 1.048-0.629 0.281-0.29 0.484-0.647 0.589-1.037 0.396-2.215 0.592-4.461 0.583-6.71v-0.013c0.014-2.284-0.181-4.565-0.583-6.813-0.105-0.39-0.307-0.747-0.589-1.037-0.285-0.294-0.642-0.509-1.035-0.625-0.453-0.107-1.336-0.205-2.508-0.283-1.158-0.077-2.5-0.129-3.782-0.164-1.28-0.035-2.49-0.052-3.381-0.061-0.445-0.004-0.81-0.007-1.063-0.008l-0.393-0.001v-1.333c0-1.333-0-1.333-0-1.333l0.106 0c0.069 0 0.169 0 0.298 0.001 0.257 0.001 0.627 0.003 1.078 0.008 0.901 0.009 2.127 0.026 3.427 0.062 1.298 0.035 2.679 0.088 3.887 0.169 1.173 0.078 2.286 0.188 2.987 0.359 0.016 0.004 0.031 0.008 0.047 0.012 0.853 0.241 1.628 0.704 2.246 1.34s1.056 1.425 1.271 2.285c0.007 0.029 0.013 0.058 0.019 0.087 0.437 2.424 0.65 4.882 0.635 7.345 0.008 2.426-0.204 4.847-0.635 7.235-0.005 0.029-0.011 0.058-0.019 0.087-0.215 0.86-0.654 1.649-1.271 2.285s-1.392 1.099-2.246 1.34l-0.018 0.005c-0.712 0.19-1.834 0.311-3.007 0.396-1.21 0.088-2.593 0.146-3.892 0.185-1.301 0.039-2.528 0.058-3.429 0.068-0.451 0.005-0.821 0.007-1.079 0.008-0.129 0.001-0.23 0.001-0.298 0.001l-0.106 0-0.107-0c-0.069-0-0.17-0.001-0.298-0.001-0.258-0.001-0.628-0.004-1.079-0.008-0.901-0.010-2.128-0.029-3.429-0.068-1.299-0.039-2.682-0.097-3.892-0.185-1.172-0.085-2.295-0.206-3.007-0.396l-0.007-0.002c-0.836-0.229-1.599-0.669-2.215-1.279s-1.065-1.368-1.302-2.202c-0.012-0.042-0.022-0.085-0.030-0.129-0.437-2.423-0.65-4.882-0.635-7.344-0.012-2.444 0.201-4.884 0.635-7.289 0.005-0.029 0.012-0.058 0.019-0.087 0.215-0.86 0.654-1.649 1.272-2.285s1.392-1.099 2.246-1.341l0.019-0.005c0.712-0.19 1.834-0.311 3.007-0.396 1.21-0.088 2.593-0.146 3.892-0.185 1.301-0.039 2.528-0.058 3.429-0.068 0.451-0.005 0.821-0.007 1.079-0.008 0.129-0.001 0.23-0.001 0.298-0.001l0.106-0zM12.33 10.821c0.41-0.239 0.917-0.241 1.329-0.007l7.667 4.36c0.417 0.237 0.674 0.68 0.674 1.159s-0.257 0.922-0.674 1.159l-7.667 4.36c-0.413 0.235-0.919 0.232-1.329-0.006s-0.663-0.678-0.663-1.153v-8.72c0-0.475 0.252-0.914 0.663-1.153zM14.333 14.265v4.136l3.636-2.068-3.636-2.068z"></path>
</symbol>
<symbol id="icon-instagram" viewBox="0 0 32 32">
<path d="M16 2.881c4.275 0 4.781 0.019 6.462 0.094 1.563 0.069 2.406 0.331 2.969 0.55 0.744 0.288 1.281 0.638 1.837 1.194 0.563 0.563 0.906 1.094 1.2 1.838 0.219 0.563 0.481 1.412 0.55 2.969 0.075 1.688 0.094 2.194 0.094 6.463s-0.019 4.781-0.094 6.463c-0.069 1.563-0.331 2.406-0.55 2.969-0.288 0.744-0.637 1.281-1.194 1.837-0.563 0.563-1.094 0.906-1.837 1.2-0.563 0.219-1.413 0.481-2.969 0.55-1.688 0.075-2.194 0.094-6.463 0.094s-4.781-0.019-6.463-0.094c-1.563-0.069-2.406-0.331-2.969-0.55-0.744-0.288-1.281-0.637-1.838-1.194-0.563-0.563-0.906-1.094-1.2-1.837-0.219-0.563-0.481-1.413-0.55-2.969-0.075-1.688-0.094-2.194-0.094-6.463s0.019-4.781 0.094-6.463c0.069-1.563 0.331-2.406 0.55-2.969 0.288-0.744 0.638-1.281 1.194-1.838 0.563-0.563 1.094-0.906 1.838-1.2 0.563-0.219 1.412-0.481 2.969-0.55 1.681-0.075 2.188-0.094 6.463-0.094zM16 0c-4.344 0-4.887 0.019-6.594 0.094-1.7 0.075-2.869 0.35-3.881 0.744-1.056 0.412-1.95 0.956-2.837 1.85-0.894 0.888-1.438 1.781-1.85 2.831-0.394 1.019-0.669 2.181-0.744 3.881-0.075 1.713-0.094 2.256-0.094 6.6s0.019 4.887 0.094 6.594c0.075 1.7 0.35 2.869 0.744 3.881 0.413 1.056 0.956 1.95 1.85 2.837 0.887 0.887 1.781 1.438 2.831 1.844 1.019 0.394 2.181 0.669 3.881 0.744 1.706 0.075 2.25 0.094 6.594 0.094s4.888-0.019 6.594-0.094c1.7-0.075 2.869-0.35 3.881-0.744 1.050-0.406 1.944-0.956 2.831-1.844s1.438-1.781 1.844-2.831c0.394-1.019 0.669-2.181 0.744-3.881 0.075-1.706 0.094-2.25 0.094-6.594s-0.019-4.887-0.094-6.594c-0.075-1.7-0.35-2.869-0.744-3.881-0.394-1.063-0.938-1.956-1.831-2.844-0.887-0.887-1.781-1.438-2.831-1.844-1.019-0.394-2.181-0.669-3.881-0.744-1.712-0.081-2.256-0.1-6.6-0.1v0zM16 7.781c-4.537 0-8.219 3.681-8.219 8.219s3.681 8.219 8.219 8.219 8.219-3.681 8.219-8.219c0-4.537-3.681-8.219-8.219-8.219zM16 21.331c-2.944 0-5.331-2.387-5.331-5.331s2.387-5.331 5.331-5.331c2.944 0 5.331 2.387 5.331 5.331s-2.387 5.331-5.331 5.331zM26.462 7.456c0 1.060-0.859 1.919-1.919 1.919s-1.919-0.859-1.919-1.919c0-1.060 0.859-1.919 1.919-1.919s1.919 0.859 1.919 1.919z"></path>
</symbol>
<symbol id="icon-cosmetic" viewBox="0 0 32 32">
<path d="M26.287 26.602l-2.508-5.866-1.082-2.525c-0.822-1.889-2.673-3.185-4.825-3.185-0.746 0-1.455 0.155-2.097 0.436l0.034-0.013-0.384 0.165c-0.815 0.357-1.4 1.103-1.524 1.997l-0.002 0.013v-0.157c0-0.283-0.229-0.512-0.512-0.512v0h-0.44v-4.786c0-0.283-0.229-0.512-0.512-0.512v0h-0.166v-8.425c-0.001-0.096-0.012-0.189-0.032-0.278l0.002 0.009c-0.003-0.1-0.034-0.192-0.087-0.269l0.001 0.002c-0.209-0.459-0.664-0.773-1.193-0.773-0.203 0-0.395 0.046-0.566 0.129l0.008-0.003c-1.921 0.92-3.225 2.845-3.233 5.075v4.534h-0.032c-0.283 0-0.512 0.229-0.512 0.512v0 4.788h-0.44c-0.283 0-0.512 0.229-0.512 0.512v0 12.099c0 0.283 0.229 0.512 0.512 0.512v0h7.203c0.283 0 0.512-0.229 0.512-0.512v0-11.25c0.033 0.245 0.095 0.467 0.185 0.674l-0.006-0.016 4.646 10.862c0.080 0.184 0.261 0.31 0.47 0.31 0 0 0 0 0.001 0h-0c0.001 0 0.001 0 0.002 0 0.072 0 0.14-0.015 0.202-0.042l-0.003 0.001 6.623-2.833c0.125-0.055 0.222-0.154 0.273-0.277l0.001-0.003c0.023-0.056 0.036-0.121 0.036-0.19 0-0.073-0.015-0.142-0.043-0.205l0.001 0.003zM7.135 17.981h5.311l-1.972 4.419-3.777-2.54v-1.879zM10.912 23.921l1.619 1.084-3.341 2.771zM11.336 22.972l1.536-3.439v4.47zM10.834 2.972c0.036-0.017 0.078-0.028 0.122-0.028 0.057 0 0.111 0.017 0.155 0.046l-0.001-0.001c0.028 0.019 0.052 0.041 0.072 0.066l0 0.001c-0.366 1.366-1.725 2.703-2.908 3.215 0.287-1.47 1.243-2.67 2.531-3.288l0.028-0.012zM8.192 7.382c1.024-0.297 2.217-1.144 3.052-2.239v6.514h-3.052zM7.648 12.681h4.275v4.276h-4.276zM6.697 21.093l3.354 2.249-2.554 5.714h-0.801zM9.257 29.052l3.625-3.002v3.005zM16.372 21.72l3.484 2.107-1.783 1.869zM20.755 24.371l3.016 1.824-4.685-0.077zM21.478 23.612l1.674-1.754 1.595 3.731zM15.013 17.398c0.154-0.38 0.446-0.678 0.812-0.836l0.010-0.004 0.384-0.165c0.489-0.214 1.059-0.339 1.658-0.339 1.732 0 3.22 1.042 3.872 2.534l0.011 0.027 0.948 2.22-2.132 2.235-4.899-2.963-0.655-1.536c-0.079-0.179-0.125-0.387-0.125-0.606 0-0.204 0.040-0.398 0.112-0.576l-0.004 0.010zM18.688 27.136l4.87 0.079-4.088 1.748zM10.6 14.647h-1.631c-0.283 0-0.512 0.229-0.512 0.512s0.229 0.512 0.512 0.512v0h1.631c0.283 0 0.512-0.229 0.512-0.512s-0.229-0.512-0.512-0.512v0z"></path>
</symbol>
<symbol id="icon-arrow-up" viewBox="0 0 32 32">
<path d="M27.414 12.586l-10-10c-0.781-0.781-2.047-0.781-2.828 0l-10 10c-0.781 0.781-0.781 2.047 0 2.828s2.047 0.781 2.828 0l6.586-6.586v19.172c0 1.105 0.895 2 2 2s2-0.895 2-2v-19.172l6.586 6.586c0.39 0.39 0.902 0.586 1.414 0.586s1.024-0.195 1.414-0.586c0.781-0.781 0.781-2.047 0-2.828z"></path>
</symbol>
</defs>
</svg>
